#!OML:ASF F:\VICON\USERDATA\INSTALL\rory3\rory3.ASF
:FULLY-SPECIFIED
:DEGREES
757
root -1.68361 17.8572 1.30463 -182.611 -150.864 180.672
lowerback 13.5783 1.15533 -2.79954
upperback 6.08899 1.10179 0.308357
thorax -1.26529 0.462078 1.74172
lowerneck 10.1057 3.82354 -4.46925
upperneck 11.5009 4.21919 5.16886
head 1.733 1.92451 2.34864
rclavicle 1.14829e-014 1.63997e-015
rhumerus 35.5547 5.89219 -72.7559
rradius 120.737
rwrist -18.5236
rhand -39.697 11.962
rfingers 7.12502
rthumb -12.6756 -17.6333
lclavicle 1.14829e-014 1.63997e-015
lhumerus 34.9674 -5.72841 72.4618
lradius 118.638
lwrist 15.7251
lhand -27.5596 15.4063
lfingers 7.12502
lthumb -0.960599 45.3839
rfemur -30.1622 18.7372 2.51631
rtibia 52.688
rfoot -11.5425 -12.5835
rtoes -8.52478
lfemur -23.315 -1.88885 -8.79568
ltibia 62.0636
lfoot -12.8295 13.1248
ltoes -8.49236
758
root -1.6088 17.789 1.33277 -183.144 -149.447 181.169
lowerback 13.5741 1.31853 -3.12115
upperback 6.09376 1.27195 0.246473
thorax -1.27069 0.54057 1.83381
lowerneck 9.80723 3.94207 -4.59163
upperneck 11.9338 4.38542 4.80357
head 1.92344 1.99715 2.26102
rclavicle -2.56929e-014 9.88954e-015
rhumerus 36.0942 6.3205 -72.7447
rradius 120.722
rwrist -18.4652
rhand -39.7642 11.9738
rfingers 7.12502
rthumb -12.7405 -17.6175
lclavicle -2.56929e-014 9.88954e-015
lhumerus 34.6123 -5.44482 72.9272
lradius 119.09
lwrist 15.4662
lhand -27.7442 15.2249
lfingers 7.12502
lthumb -1.13883 45.2017
rfemur -29.3639 18.4802 1.95014
rtibia 55.5982
rfoot -11.2449 -12.4916
rtoes -6.35271
lfemur -23.315 -2.8572 -8.73599
ltibia 59.6053
lfoot -13.16 13.9549
ltoes -7.49125
759
root -1.5364 17.7088 1.36721 -183.585 -147.967 181.524
lowerback 13.479 1.46539 -3.25332
upperback 6.07627 1.44863 0.224669
thorax -1.24985 0.62519 1.86118
lowerneck 9.47393 4.1148 -4.87582
upperneck 12.2935 4.61246 4.55795
head 2.08801 2.09382 2.24117
rclavicle -3.63776e-014 6.4605e-015
rhumerus 36.5617 6.88278 -72.7866
rradius 120.713
rwrist -18.7132
rhand -39.906 12.3527
rfingers 7.12502
rthumb -12.8772 -17.2301
lclavicle -3.63776e-014 6.4605e-015
lhumerus 34.191 -5.1003 73.3989
lradius 119.487
lwrist 15.0169
lhand -27.9317 14.9278
lfingers 7.12502
lthumb -1.31991 44.9034
rfemur -28.5322 18.4669 1.4064
rtibia 58.3106
rfoot -10.6747 -11.3063
rtoes -5.93384
lfemur -23.13 -3.84785 -8.41161
ltibia 56.8808
lfoot -12.9929 13.6959
ltoes -11.4265
760
root -1.46681 17.6219 1.40573 -184.009 -146.465 181.846
lowerback 13.3489 1.61139 -3.21015
upperback 6.00078 1.64529 0.11778
thorax -1.2665 0.725551 1.69852
lowerneck 9.26412 4.31141 -4.81577
upperneck 12.5393 4.90293 4.22206
head 2.2006 2.23308 2.12457
rclavicle -6.28657e-014 1.64991e-014
rhumerus 36.8978 7.49527 -72.9798
rradius 120.692
rwrist -19.0087
rhand -40.1208 12.5724
rfingers 7.12502
rthumb -13.0843 -16.9971
lclavicle -6.28657e-014 1.64991e-014
lhumerus 33.6662 -4.86162 73.6662
lradius 119.998
lwrist 14.5261
lhand -27.9961 14.7579
lfingers 7.12502
lthumb -1.38217 44.7331
rfemur -27.5684 18.7166 0.804828
rtibia 60.6547
rfoot -10.0502 -9.22413
rtoes -5.59373
lfemur -22.8496 -4.84564 -7.95044
ltibia 54.1111
lfoot -13.3696 10.6578
ltoes -16.7557
761
root -1.40031 17.5301 1.45884 -184.745 -145.043 182.53
lowerback 13.1627 1.79317 -3.18366
upperback 5.89425 1.88512 -0.181126
thorax -1.28072 0.85012 1.34063
lowerneck 9.23776 4.46147 -4.45991
upperneck 12.8247 5.14874 3.80261
head 2.3078 2.35832 1.92743
rclavicle -3.32964e-014 -2.43511e-015
rhumerus 36.9925 8.00241 -73.2975
rradius 120.652
rwrist -19.2277
rhand -40.1641 12.7796
rfingers 7.12502
rthumb -13.126 -16.7873
lclavicle -3.32964e-014 -2.43511e-015
lhumerus 33.0387 -4.878 73.8836
lradius 120.571
lwrist 14.1739
lhand -27.8705 14.4409
lfingers 7.12502
lthumb -1.26084 44.4169
rfemur -26.2538 18.9901 -0.154925
rtibia 62.4654
rfoot -8.84857 -6.87252
rtoes -4.79987
lfemur -22.3419 -5.96777 -7.89278
ltibia 51.6735
lfoot -14.0933 8.71878
ltoes -13.0878
762
root -1.33352 17.4348 1.51961 -185.651 -143.657 183.383
lowerback 12.944 1.99217 -3.14899
upperback 5.82189 2.14895 -0.533141
thorax -1.23697 0.985901 0.922487
lowerneck 9.23766 4.54776 -4.26771
upperneck 13.0789 5.28956 3.51373
head 2.39948 2.42665 1.80359
rclavicle 7.78863e-014 -2.73329e-014
rhumerus 37.1036 8.44044 -73.6043
rradius 120.594
rwrist -19.463
rhand -40.2673 13.2325
rfingers 7.12502
rthumb -13.2254 -16.328
lclavicle 7.78863e-014 -2.73329e-014
lhumerus 32.4622 -4.86303 74.0628
lradius 121.139
lwrist 13.9394
lhand -27.5548 13.9897
lfingers 7.12502
lthumb -0.955885 43.9673
rfemur -24.6812 19.3665 -1.26045
rtibia 63.666
rfoot -7.3173 -4.64468
rtoes -4.57522
lfemur -21.772 -6.93215 -8.08879
ltibia 49.9847
lfoot -15.2388 8.86571
ltoes -11.7146
763
root -1.26673 17.3303 1.5744 -186.194 -142.244 183.783
lowerback 12.6343 2.13979 -2.77978
upperback 5.76181 2.39204 -0.734685
thorax -1.12094 1.11449 0.481363
lowerneck 9.09508 4.66282 -4.30248
upperneck 13.3287 5.45428 3.32445
head 2.50602 2.49955 1.75562
rclavicle 3.71355e-014 -1.43622e-014
rhumerus 37.3833 8.97974 -73.9386
rradius 120.526
rwrist -19.6125
rhand -40.4419 13.5524
rfingers 7.12502
rthumb -13.3937 -15.997
lclavicle 3.71355e-014 -1.43622e-014
lhumerus 31.9935 -4.69817 74.1563
lradius 121.699
lwrist 13.6236
lhand -27.4951 13.9097
lfingers 7.12502
lthumb -0.89824 43.8875
rfemur -23.0669 20.0872 -1.91462
rtibia 64.2372
rfoot -6.25937 -1.37977
rtoes -9.5205
lfemur -21.5678 -7.49044 -7.87957
ltibia 49.3601
lfoot -16.2401 9.93528
ltoes -13.0224
764
root -1.20354 17.2102 1.62358 -186.429 -140.815 183.816
lowerback 12.2723 2.25291 -2.26853
upperback 5.67465 2.61068 -0.750343
thorax -1.00181 1.23231 0.160758
lowerneck 8.85718 4.83434 -4.29718
upperneck 13.6247 5.72005 2.92825
head 2.64855 2.61924 1.6366
rclavicle -8.75646e-014 1.23246e-014
rhumerus 37.6815 9.67049 -74.1196
rradius 120.47
rwrist -19.6247
rhand -40.8056 13.6184
rfingers 7.12502
rthumb -13.7443 -15.9077
lclavicle -8.75646e-014 1.23246e-014
lhumerus 31.4713 -4.54263 74.3699
lradius 122.236
lwrist 12.9755
lhand -27.6374 13.7939
lfingers 7.12502
lthumb -1.03575 43.7711
rfemur -21.3908 21.0751 -2.12155
rtibia 64.2455
rfoot -6.97809 0.827381
rtoes -20.682
lfemur -21.7246 -7.65569 -7.34631
ltibia 49.8653
lfoot -17.0313 9.58205
ltoes -12.8001
765
root -1.14368 17.0755 1.66732 -186.564 -139.343 183.631
lowerback 12.0225 2.39568 -1.73043
upperback 5.58222 2.86673 -0.66134
thorax -0.948358 1.36857 -0.0735936
lowerneck 8.49594 4.96412 -4.10469
upperneck 13.9797 5.96697 2.35294
head 2.84591 2.73269 1.43483
rclavicle -1.41386e-014 1.13307e-014
rhumerus 37.958 10.3562 -74.2389
rradius 120.427
rwrist -19.4166
rhand -41.0042 13.5403
rfingers 7.12502
rthumb -13.9357 -15.9727
lclavicle -1.41386e-014 1.13307e-014
lhumerus 30.8809 -4.47411 74.6126
lradius 122.777
lwrist 12.1954
lhand -27.801 13.8706
lfingers 7.12502
lthumb -1.19374 43.847
rfemur -19.512 22.148 -1.94586
rtibia 63.7396
rfoot -7.5123 2.8538
rtoes -25.5164
lfemur -22.0399 -7.20472 -6.66037
ltibia 51.3618
lfoot -17.9674 8.21704
ltoes -12.9789
766
root -1.08974 16.9375 1.7077 -186.831 -137.861 183.595
lowerback 11.8667 2.57535 -1.47316
upperback 5.45271 3.13752 -0.552994
thorax -0.995407 1.50783 -0.136398
lowerneck 8.09177 5.12428 -3.88182
upperneck 14.4073 6.25785 1.81102
head 3.07895 2.86667 1.2437
rclavicle 2.66371e-014 -2.16675e-014
rhumerus 38.1387 11.0818 -74.4982
rradius 120.399
rwrist -18.9343
rhand -40.5596 13.0863
rfingers 7.12502
rthumb -13.5072 -16.4556
lclavicle 2.66371e-014 -2.16675e-014
lhumerus 30.2349 -4.19306 74.6456
lradius 123.346
lwrist 11.9099
lhand -27.8432 14.0644
lfingers 7.12502
lthumb -1.23443 44.0406
rfemur -17.4379 23.1728 -1.71474
rtibia 62.8099
rfoot -9.87098 3.81853
rtoes -32.6745
lfemur -22.3466 -6.10711 -6.16999
ltibia 53.4477
lfoot -18.6126 6.3902
ltoes -14.5434
767
root -1.04101 16.8085 1.74788 -187.105 -136.382 183.654
lowerback 11.7334 2.7996 -1.38328
upperback 5.26146 3.45047 -0.40571
thorax -1.12961 1.66596 -0.0732207
lowerneck 7.622 5.24344 -3.63729
upperneck 14.9544 6.5049 1.24007
head 3.37452 2.97448 1.04646
rclavicle -3.25013e-014 2.14687e-014
rhumerus 38.156 11.8505 -74.7108
rradius 120.459
rwrist -18.5377
rhand -40.2394 13.1167
rfingers 7.12502
rthumb -13.1986 -16.4455
lclavicle -3.25013e-014 2.14687e-014
lhumerus 29.5512 -3.8832 74.6425
lradius 123.92
lwrist 11.924
lhand -27.9471 13.8337
lfingers 7.12502
lthumb -1.3348 43.8092
rfemur -15.4087 24.0725 -1.49913
rtibia 61.6279
rfoot -13.3118 3.33569
rtoes -33.337
lfemur -22.6492 -4.73759 -5.90477
ltibia 55.6485
lfoot -19.1234 5.29148
ltoes -17.4944
